<svg width="87" height="91" viewBox="0 0 87 91" fill="none" xmlns="http://www.w3.org/2000/svg">
<g clip-path="url(#clip0_92_49)">
<path d="M78.5 69.3759C83.3326 69.3759 87.25 65.2949 87.25 60.261C87.25 57.1114 83.8244 52.9079 81.2602 50.202C79.7421 48.6003 77.2579 48.6003 75.7398 50.202C73.1756 52.9079 69.75 57.1114 69.75 60.261C69.75 65.2949 73.6674 69.3759 78.5 69.3759Z" fill="#AA431F"/>
<path d="M62.2162 41.2337L68.7997 29.8703L32.0055 8.75302L2.59782 59.5129C-3.26468 69.6318 0.214409 82.5713 10.3685 88.4137C20.5226 94.2556 33.5066 90.7889 39.3691 80.6695L44.2661 72.2174L62.2162 41.2337Z" fill="#C24C23"/>
<path d="M31.6608 0.925892C30.1008 0.00372979 28.0886 0.520723 27.1664 2.08072C26.2442 3.64071 26.7612 5.6529 28.3212 6.57511L31.9782 8.73702L32.0039 8.75202L68.798 29.8693L72.4892 31.9877C74.0607 32.8898 76.0662 32.3469 76.9683 30.7752C77.8705 29.2035 77.3275 27.1981 75.7556 26.296L35.2995 3.07708L31.6608 0.925892Z" fill="#AA431F"/>
<path d="M47.5561 66.5378L47.5482 66.5335L36.1176 59.9565C34.547 59.0531 32.541 59.5938 31.6373 61.1645C30.7335 62.7351 31.2743 64.741 32.845 65.6449L44.2665 72.2166L47.5561 66.5378Z" fill="#AA431F"/>
<path d="M54.7205 54.1719L54.7127 54.1671L36.3246 43.5874C34.7539 42.684 32.7479 43.2243 31.8442 44.7954C30.9405 46.366 31.4812 48.3719 33.0519 49.2758L51.431 59.8502L54.7205 54.1719Z" fill="#AA431F"/>
<path d="M62.2089 41.2285L51.0176 34.7892C49.4465 33.8855 47.4406 34.4262 46.5367 35.997C45.6333 37.5677 46.174 39.5738 47.7447 40.4773L58.9272 46.9111L62.2089 41.2285Z" fill="#AA431F"/>
</g>
<defs>
<clipPath id="clip0_92_49">
<rect width="87" height="91" fill="white"/>
</clipPath>
</defs>
</svg>
