<svg width="95" height="105" viewBox="0 0 95 105" fill="none" xmlns="http://www.w3.org/2000/svg">
<g clip-path="url(#clip0_164_2)">
<path d="M47.5391 37.1391C45.3328 29.4171 47.2449 13.6055 72.5435 12.1346C72.7886 21.5726 68.131 39.7866 47.5391 37.1391Z" fill="#C24C23"/>
<path d="M49.9029 35.0961C48.1978 29.027 49.6756 16.6 69.2271 15.444C69.4166 22.8617 65.817 37.1769 49.9029 35.0961Z" fill="#AA431F"/>
<path d="M43.3602 50.5266C50.2341 54.6794 59.6005 67.561 42.0748 85.8649C35.4686 79.12 26.4771 62.6095 43.3602 50.5266Z" fill="#C24C23"/>
<path d="M43.0203 53.6324C48.4016 56.916 55.7814 67.023 42.2501 81.183C37.0604 75.8797 29.9488 62.945 43.0203 53.6324Z" fill="#AA431F"/>
<path d="M50.0311 41.8022C54.1805 34.9262 67.0574 25.5534 85.37 43.07C78.6284 49.6795 62.1224 58.6793 50.0311 41.8022Z" fill="#C24C23"/>
<path d="M53.1372 42.1407C56.4181 36.7577 66.5215 29.3729 80.6882 42.8971C75.3875 48.0895 62.4563 55.2075 53.1372 42.1407Z" fill="#AA431F"/>
<path d="M37.8878 49.867C39.5312 57.728 36.4832 73.3605 11.1444 73.002C11.5808 63.571 17.5406 45.7405 37.8878 49.867Z" fill="#C24C23"/>
<path d="M35.3827 51.7341C36.6455 57.9103 34.2749 70.1983 14.6909 69.9406C15.0372 62.5285 19.6603 48.5104 35.3827 51.7341Z" fill="#AA431F"/>
<path d="M48.3705 47.0275C56.2228 45.3432 71.871 48.3098 71.6444 73.6502C62.2112 73.2628 44.35 67.3959 48.3705 47.0275Z" fill="#C24C23"/>
<path d="M50.2506 49.5228C56.4202 48.2279 68.7203 50.5345 68.5645 70.1196C61.1508 69.8119 47.1088 65.2618 50.2506 49.5228Z" fill="#AA431F"/>
<path d="M35.3591 43.18C31.3042 50.1121 18.5566 59.6601 0.00619216 42.3955C6.65679 35.6944 23.0382 26.4698 35.3591 43.18Z" fill="#C24C23"/>
<path d="M32.2488 42.8841C29.0418 48.3114 19.0404 55.8337 4.69006 42.5045C9.91925 37.2401 22.7519 29.946 32.2488 42.8841Z" fill="#AA431F"/>
<path d="M36.7428 36.7793C29.0769 39.1733 13.2233 37.6476 11.1357 12.3924C20.5648 11.917 38.8871 16.1289 36.7428 36.7793Z" fill="#C24C23"/>
<path d="M34.6427 34.466C28.6171 36.3186 16.1577 35.1446 14.525 15.627C21.9359 15.2566 36.3346 18.5059 34.6427 34.466Z" fill="#AA431F"/>
<path d="M42.0463 35.354C35.1378 31.259 25.6638 18.4564 43.0354 0.0061895C49.6979 6.69546 58.8276 23.13 42.0463 35.354Z" fill="#C24C23"/>
<path d="M42.3603 32.2455C36.9517 29.0071 29.4874 18.9623 42.8995 4.68939C48.1335 9.94897 55.3532 22.8236 42.3603 32.2455Z" fill="#AA431F"/>
<circle cx="41.6557" cy="43.0225" r="13.6054" fill="#C24C23"/>
<circle cx="41.2554" cy="42.6223" r="6.00237" fill="#AA431F"/>
<path d="M91.182 72.1891C80.6968 62.9529 49.3812 86.8209 64.6887 102.265C73.9195 111.578 102.082 92.0808 91.182 72.1891Z" fill="#AA431F"/>
<path d="M79.6407 92.6506C75.268 96.4867 70.2394 98.7453 66.3864 99.8045C67.4457 93.2568 71.3449 87.6651 76.097 83.2144C80.4305 79.1559 85.3754 76.1415 89.2202 74.32C88.2747 82.5988 84.3372 88.5305 79.6407 92.6506Z" stroke="#C24C23" stroke-width="3" stroke-linecap="round"/>
<path d="M58.938 61.7757C44.9649 61.7757 37.2429 100.386 58.938 101.856C72.0206 102.743 80.2653 69.4977 58.938 61.7757Z" fill="#C24C23"/>
<path d="M63.8027 84.7585C63.0571 90.5274 60.7767 95.5462 58.5856 98.8878C55.0523 93.2743 54.2822 86.5009 54.9063 80.0201C55.4753 74.1102 57.1934 68.5797 58.8745 64.6714C63.6372 71.5087 64.6035 78.5624 63.8027 84.7585Z" stroke="#AA431F" stroke-width="3" stroke-linecap="round"/>
<circle cx="89.8258" cy="24.269" r="4.14797" stroke="#C24C23" stroke-width="2"/>
<circle cx="17.7542" cy="94.8698" r="4.14797" stroke="#C24C23" stroke-width="2"/>
</g>
<defs>
<clipPath id="clip0_164_2">
<rect width="95" height="105" fill="white"/>
</clipPath>
</defs>
</svg>
