<svg width="67" height="91" viewBox="0 0 67 91" fill="none" xmlns="http://www.w3.org/2000/svg">
<g clip-path="url(#clip0_92_47)">
<path d="M44.9509 11.5714H23.3215V34.8973L10.1741 70.9464H58.5223L44.9509 34.8973V11.5714Z" fill="#C24C23"/>
<path d="M67.0249 83.7905C67.0213 87.5854 63.9463 90.6606 60.152 90.6649H6.85185C3.05649 90.6613 -0.0194141 87.5858 -0.0236816 83.7908C-0.0236816 83.4229 0.0444152 83.0575 0.175226 82.7138L18.6368 34.332C18.6432 34.2553 18.6541 34.1786 18.6638 34.1029V6.37912H16.4826C14.8126 6.37912 13.4615 5.02584 13.4615 3.35693C13.4615 1.68803 14.8126 0.334747 16.4826 0.334747H21.6849C21.6852 0.334747 21.6856 0.334747 21.686 0.334747C23.355 0.334747 24.7082 1.68794 24.7082 3.35693V34.3363C24.7082 34.5103 24.6931 34.6822 24.6639 34.8541C24.6639 35.2227 24.5752 35.7188 24.4423 36.0614L13.3222 65.2032H53.4188L41.93 36.0938C41.8001 35.7755 41.7229 35.4063 41.719 35.0194L41.6966 34.9306C41.6843 34.8235 41.6772 34.6993 41.6772 34.5737V3.35693C41.6772 3.35666 41.6772 3.35629 41.6772 3.35582C41.6772 1.68729 43.0298 0.334747 44.6983 0.334747H50.0368C51.7068 0.334747 53.0578 1.68803 53.0578 3.35693C53.0578 5.02584 51.7068 6.37912 50.0368 6.37912H47.7183V34.3017L66.8133 82.6802C66.9527 83.0348 67.0252 83.4098 67.0252 83.7902L67.0249 83.7905ZM27.6459 58.4695C27.6849 57.2476 28.6847 56.2718 29.9125 56.2718C31.1404 56.2718 32.1403 57.2475 32.179 58.466C32.1791 59.718 31.162 60.7362 29.9113 60.7362C28.6607 60.7362 27.6459 59.718 27.6459 58.4695ZM29.1549 58.4695C29.1546 58.4775 29.1544 58.487 29.1544 58.4965C29.1544 58.9144 29.4931 59.2531 29.9111 59.2531C30.329 59.2531 30.6677 58.9144 30.6677 58.4965C30.6677 58.4858 30.6675 58.4753 30.6672 58.4648C30.6507 58.0615 30.3184 57.7399 29.9112 57.7399C29.5029 57.7399 29.1701 58.0634 29.1551 58.4683L29.1549 58.4695ZM39.3541 56.2029C39.3541 56.2026 39.3541 56.2023 39.3541 56.2018C39.3541 54.9494 40.3693 53.934 41.6219 53.934C42.8743 53.934 43.8896 54.9493 43.8896 56.2018C43.8896 57.4542 42.8744 58.4695 41.6219 58.4695C40.3703 58.4683 39.356 57.4544 39.3541 56.2031V56.2029ZM40.8652 56.2029C40.8649 56.2109 40.8647 56.2204 40.8647 56.2298C40.8647 56.6478 41.2034 56.9865 41.6214 56.9865C42.0393 56.9865 42.378 56.6478 42.378 56.2298C42.378 56.2191 42.3779 56.2087 42.3775 56.1982C42.361 55.7949 42.0288 55.4732 41.6216 55.4732C41.2132 55.4732 40.8804 55.7967 40.8655 56.2016L40.8652 56.2029ZM33.0568 48.6487C33.0593 46.9104 34.4681 45.5019 36.2064 45.5C37.9443 45.5025 39.3522 46.9108 39.3542 48.6484C39.3517 50.3862 37.944 51.7941 36.2069 51.7972C34.4681 51.7959 33.0588 50.3871 33.057 48.6488L33.0568 48.6487ZM34.5678 48.6487C34.5678 49.5512 35.3028 50.2862 36.2065 50.2862C37.1079 50.2862 37.8451 49.5512 37.8451 48.6487C37.8451 47.7449 37.1079 47.01 36.2065 47.01C35.3028 47.01 34.5678 47.7449 34.5678 48.6487Z" fill="#AA431F"/>
</g>
<defs>
<clipPath id="clip0_92_47">
<rect width="67" height="91" fill="white"/>
</clipPath>
</defs>
</svg>
